M48
; DRILL file {KiCad (5.1.5)-2} date 14.10.2020 11:24:11
; FORMAT={-:-/ absolute / inch / decimal}
; #@! TF.CreationDate,2020-10-14T11:24:11+02:00
; #@! TF.GenerationSoftware,Kicad,Pcbnew,(5.1.5)-2
; #@! TF.FileFunction,Plated,1,2,PTH
FMAT,2
INCH
T1C0.0315
T2C0.0394
T3C0.1260
%
G90
G05
T1
X3.98Y-1.91
X3.98Y-2.24
X4.24Y-2.68
X4.46Y-2.12
X4.49Y-1.89
X4.51Y-1.81
X4.66Y-1.8
X4.67Y-2.449
X4.87Y-1.65
X4.9449Y-1.8
X5.08Y-2.6781
X5.11Y-2.49
X5.17Y-1.75
X5.17Y-2.14
X5.37Y-1.77
X5.4Y-2.49
X5.46Y-2.6781
X5.49Y-1.78
X5.56Y-2.6
X5.61Y-1.77
X5.69Y-2.48
X5.81Y-1.99
X5.8543Y-2.209
X5.8543Y-2.279
T2
X5.03Y-1.82
X5.03Y-1.92
X4.3094Y-1.6535
X4.4094Y-1.6535
X5.0394Y-1.6535
X5.1394Y-1.6535
X5.2394Y-1.6535
X5.3394Y-1.6535
X5.4394Y-1.6535
X5.5394Y-1.6535
X5.03Y-2.04
X5.03Y-2.14
X4.5669Y-1.6535
X4.6669Y-1.6535
X4.7669Y-1.6535
T3
X4.0748Y-1.7126
X4.0748Y-2.6181
X5.7677Y-1.7126
X5.7677Y-2.6181
T0
M30
