G04 #@! TF.GenerationSoftware,KiCad,Pcbnew,(5.1.5)-2*
G04 #@! TF.CreationDate,2020-10-14T11:31:30+02:00*
G04 #@! TF.ProjectId,XLR_Driver,584c525f-4472-4697-9665-722e6b696361,rev?*
G04 #@! TF.SameCoordinates,Original*
G04 #@! TF.FileFunction,Soldermask,Top*
G04 #@! TF.FilePolarity,Negative*
%FSLAX46Y46*%
G04 Gerber Fmt 4.6, Leading zero omitted, Abs format (unit mm)*
G04 Created by KiCad (PCBNEW (5.1.5)-2) date 2020-10-14 11:31:30*
%MOMM*%
%LPD*%
G04 APERTURE LIST*
%ADD10C,0.100000*%
G04 APERTURE END LIST*
D10*
G36*
X147317021Y-63806640D02*
G01*
X147826769Y-64017785D01*
X147826771Y-64017786D01*
X148285534Y-64324321D01*
X148675679Y-64714466D01*
X148982214Y-65173229D01*
X148982215Y-65173231D01*
X149193360Y-65682979D01*
X149301000Y-66224124D01*
X149301000Y-66775876D01*
X149193360Y-67317021D01*
X148982215Y-67826769D01*
X148982214Y-67826771D01*
X148675679Y-68285534D01*
X148285534Y-68675679D01*
X147826771Y-68982214D01*
X147826770Y-68982215D01*
X147826769Y-68982215D01*
X147317021Y-69193360D01*
X146775876Y-69301000D01*
X146224124Y-69301000D01*
X145682979Y-69193360D01*
X145173231Y-68982215D01*
X145173230Y-68982215D01*
X145173229Y-68982214D01*
X144714466Y-68675679D01*
X144324321Y-68285534D01*
X144017786Y-67826771D01*
X144017785Y-67826769D01*
X143806640Y-67317021D01*
X143699000Y-66775876D01*
X143699000Y-66224124D01*
X143806640Y-65682979D01*
X144017785Y-65173231D01*
X144017786Y-65173229D01*
X144324321Y-64714466D01*
X144714466Y-64324321D01*
X145173229Y-64017786D01*
X145173231Y-64017785D01*
X145682979Y-63806640D01*
X146224124Y-63699000D01*
X146775876Y-63699000D01*
X147317021Y-63806640D01*
G37*
G36*
X104317021Y-63806640D02*
G01*
X104826769Y-64017785D01*
X104826771Y-64017786D01*
X105285534Y-64324321D01*
X105675679Y-64714466D01*
X105982214Y-65173229D01*
X105982215Y-65173231D01*
X106193360Y-65682979D01*
X106301000Y-66224124D01*
X106301000Y-66775876D01*
X106193360Y-67317021D01*
X105982215Y-67826769D01*
X105982214Y-67826771D01*
X105675679Y-68285534D01*
X105285534Y-68675679D01*
X104826771Y-68982214D01*
X104826770Y-68982215D01*
X104826769Y-68982215D01*
X104317021Y-69193360D01*
X103775876Y-69301000D01*
X103224124Y-69301000D01*
X102682979Y-69193360D01*
X102173231Y-68982215D01*
X102173230Y-68982215D01*
X102173229Y-68982214D01*
X101714466Y-68675679D01*
X101324321Y-68285534D01*
X101017786Y-67826771D01*
X101017785Y-67826769D01*
X100806640Y-67317021D01*
X100699000Y-66775876D01*
X100699000Y-66224124D01*
X100806640Y-65682979D01*
X101017785Y-65173231D01*
X101017786Y-65173229D01*
X101324321Y-64714466D01*
X101714466Y-64324321D01*
X102173229Y-64017786D01*
X102173231Y-64017785D01*
X102682979Y-63806640D01*
X103224124Y-63699000D01*
X103775876Y-63699000D01*
X104317021Y-63806640D01*
G37*
G36*
X111223997Y-65193051D02*
G01*
X111257652Y-65203261D01*
X111288665Y-65219838D01*
X111315851Y-65242149D01*
X111338162Y-65269335D01*
X111354739Y-65300348D01*
X111364949Y-65334003D01*
X111369000Y-65375138D01*
X111369000Y-66704862D01*
X111364949Y-66745997D01*
X111354739Y-66779652D01*
X111338162Y-66810665D01*
X111315851Y-66837851D01*
X111288665Y-66860162D01*
X111257652Y-66876739D01*
X111223997Y-66886949D01*
X111182862Y-66891000D01*
X107953138Y-66891000D01*
X107912003Y-66886949D01*
X107878348Y-66876739D01*
X107847335Y-66860162D01*
X107820149Y-66837851D01*
X107797838Y-66810665D01*
X107781261Y-66779652D01*
X107771051Y-66745997D01*
X107767000Y-66704862D01*
X107767000Y-65375138D01*
X107771051Y-65334003D01*
X107781261Y-65300348D01*
X107797838Y-65269335D01*
X107820149Y-65242149D01*
X107847335Y-65219838D01*
X107878348Y-65203261D01*
X107912003Y-65193051D01*
X107953138Y-65189000D01*
X111182862Y-65189000D01*
X111223997Y-65193051D01*
G37*
G36*
X127131997Y-65193051D02*
G01*
X127165652Y-65203261D01*
X127196665Y-65219838D01*
X127223851Y-65242149D01*
X127246162Y-65269335D01*
X127262739Y-65300348D01*
X127272949Y-65334003D01*
X127277000Y-65375138D01*
X127277000Y-66704862D01*
X127272949Y-66745997D01*
X127262739Y-66779652D01*
X127246162Y-66810665D01*
X127223851Y-66837851D01*
X127196665Y-66860162D01*
X127165652Y-66876739D01*
X127131997Y-66886949D01*
X127090862Y-66891000D01*
X123861138Y-66891000D01*
X123820003Y-66886949D01*
X123786348Y-66876739D01*
X123755335Y-66860162D01*
X123728149Y-66837851D01*
X123705838Y-66810665D01*
X123689261Y-66779652D01*
X123679051Y-66745997D01*
X123675000Y-66704862D01*
X123675000Y-65375138D01*
X123679051Y-65334003D01*
X123689261Y-65300348D01*
X123705838Y-65269335D01*
X123728149Y-65242149D01*
X123755335Y-65219838D01*
X123786348Y-65203261D01*
X123820003Y-65193051D01*
X123861138Y-65189000D01*
X127090862Y-65189000D01*
X127131997Y-65193051D01*
G37*
G36*
X121731997Y-65193051D02*
G01*
X121765652Y-65203261D01*
X121796665Y-65219838D01*
X121823851Y-65242149D01*
X121846162Y-65269335D01*
X121862739Y-65300348D01*
X121872949Y-65334003D01*
X121877000Y-65375138D01*
X121877000Y-66704862D01*
X121872949Y-66745997D01*
X121862739Y-66779652D01*
X121846162Y-66810665D01*
X121823851Y-66837851D01*
X121796665Y-66860162D01*
X121765652Y-66876739D01*
X121731997Y-66886949D01*
X121690862Y-66891000D01*
X118461138Y-66891000D01*
X118420003Y-66886949D01*
X118386348Y-66876739D01*
X118355335Y-66860162D01*
X118328149Y-66837851D01*
X118305838Y-66810665D01*
X118289261Y-66779652D01*
X118279051Y-66745997D01*
X118275000Y-66704862D01*
X118275000Y-65375138D01*
X118279051Y-65334003D01*
X118289261Y-65300348D01*
X118305838Y-65269335D01*
X118328149Y-65242149D01*
X118355335Y-65219838D01*
X118386348Y-65203261D01*
X118420003Y-65193051D01*
X118461138Y-65189000D01*
X121690862Y-65189000D01*
X121731997Y-65193051D01*
G37*
G36*
X116623997Y-65193051D02*
G01*
X116657652Y-65203261D01*
X116688665Y-65219838D01*
X116715851Y-65242149D01*
X116738162Y-65269335D01*
X116754739Y-65300348D01*
X116764949Y-65334003D01*
X116769000Y-65375138D01*
X116769000Y-66704862D01*
X116764949Y-66745997D01*
X116754739Y-66779652D01*
X116738162Y-66810665D01*
X116715851Y-66837851D01*
X116688665Y-66860162D01*
X116657652Y-66876739D01*
X116623997Y-66886949D01*
X116582862Y-66891000D01*
X113353138Y-66891000D01*
X113312003Y-66886949D01*
X113278348Y-66876739D01*
X113247335Y-66860162D01*
X113220149Y-66837851D01*
X113197838Y-66810665D01*
X113181261Y-66779652D01*
X113171051Y-66745997D01*
X113167000Y-66704862D01*
X113167000Y-65375138D01*
X113171051Y-65334003D01*
X113181261Y-65300348D01*
X113197838Y-65269335D01*
X113220149Y-65242149D01*
X113247335Y-65219838D01*
X113278348Y-65203261D01*
X113312003Y-65193051D01*
X113353138Y-65189000D01*
X116582862Y-65189000D01*
X116623997Y-65193051D01*
G37*
G36*
X103578674Y-60721465D02*
G01*
X103616367Y-60732899D01*
X103651103Y-60751466D01*
X103681548Y-60776452D01*
X103706534Y-60806897D01*
X103725101Y-60841633D01*
X103736535Y-60879326D01*
X103741000Y-60924661D01*
X103741000Y-62011339D01*
X103736535Y-62056674D01*
X103725101Y-62094367D01*
X103706534Y-62129103D01*
X103681548Y-62159548D01*
X103651103Y-62184534D01*
X103616367Y-62203101D01*
X103578674Y-62214535D01*
X103533339Y-62219000D01*
X102696661Y-62219000D01*
X102651326Y-62214535D01*
X102613633Y-62203101D01*
X102578897Y-62184534D01*
X102548452Y-62159548D01*
X102523466Y-62129103D01*
X102504899Y-62094367D01*
X102493465Y-62056674D01*
X102489000Y-62011339D01*
X102489000Y-60924661D01*
X102493465Y-60879326D01*
X102504899Y-60841633D01*
X102523466Y-60806897D01*
X102548452Y-60776452D01*
X102578897Y-60751466D01*
X102613633Y-60732899D01*
X102651326Y-60721465D01*
X102696661Y-60717000D01*
X103533339Y-60717000D01*
X103578674Y-60721465D01*
G37*
G36*
X105628674Y-60721465D02*
G01*
X105666367Y-60732899D01*
X105701103Y-60751466D01*
X105731548Y-60776452D01*
X105756534Y-60806897D01*
X105775101Y-60841633D01*
X105786535Y-60879326D01*
X105791000Y-60924661D01*
X105791000Y-62011339D01*
X105786535Y-62056674D01*
X105775101Y-62094367D01*
X105756534Y-62129103D01*
X105731548Y-62159548D01*
X105701103Y-62184534D01*
X105666367Y-62203101D01*
X105628674Y-62214535D01*
X105583339Y-62219000D01*
X104746661Y-62219000D01*
X104701326Y-62214535D01*
X104663633Y-62203101D01*
X104628897Y-62184534D01*
X104598452Y-62159548D01*
X104573466Y-62129103D01*
X104554899Y-62094367D01*
X104543465Y-62056674D01*
X104539000Y-62011339D01*
X104539000Y-60924661D01*
X104543465Y-60879326D01*
X104554899Y-60841633D01*
X104573466Y-60806897D01*
X104598452Y-60776452D01*
X104628897Y-60751466D01*
X104663633Y-60732899D01*
X104701326Y-60721465D01*
X104746661Y-60717000D01*
X105583339Y-60717000D01*
X105628674Y-60721465D01*
G37*
G36*
X149178674Y-60855465D02*
G01*
X149216367Y-60866899D01*
X149251103Y-60885466D01*
X149281548Y-60910452D01*
X149306534Y-60940897D01*
X149325101Y-60975633D01*
X149336535Y-61013326D01*
X149341000Y-61058661D01*
X149341000Y-61895339D01*
X149336535Y-61940674D01*
X149325101Y-61978367D01*
X149306534Y-62013103D01*
X149281548Y-62043548D01*
X149251103Y-62068534D01*
X149216367Y-62087101D01*
X149178674Y-62098535D01*
X149133339Y-62103000D01*
X148046661Y-62103000D01*
X148001326Y-62098535D01*
X147963633Y-62087101D01*
X147928897Y-62068534D01*
X147898452Y-62043548D01*
X147873466Y-62013103D01*
X147854899Y-61978367D01*
X147843465Y-61940674D01*
X147839000Y-61895339D01*
X147839000Y-61058661D01*
X147843465Y-61013326D01*
X147854899Y-60975633D01*
X147873466Y-60940897D01*
X147898452Y-60910452D01*
X147928897Y-60885466D01*
X147963633Y-60866899D01*
X148001326Y-60855465D01*
X148046661Y-60851000D01*
X149133339Y-60851000D01*
X149178674Y-60855465D01*
G37*
G36*
X147146674Y-60855465D02*
G01*
X147184367Y-60866899D01*
X147219103Y-60885466D01*
X147249548Y-60910452D01*
X147274534Y-60940897D01*
X147293101Y-60975633D01*
X147304535Y-61013326D01*
X147309000Y-61058661D01*
X147309000Y-61895339D01*
X147304535Y-61940674D01*
X147293101Y-61978367D01*
X147274534Y-62013103D01*
X147249548Y-62043548D01*
X147219103Y-62068534D01*
X147184367Y-62087101D01*
X147146674Y-62098535D01*
X147101339Y-62103000D01*
X146014661Y-62103000D01*
X145969326Y-62098535D01*
X145931633Y-62087101D01*
X145896897Y-62068534D01*
X145866452Y-62043548D01*
X145841466Y-62013103D01*
X145822899Y-61978367D01*
X145811465Y-61940674D01*
X145807000Y-61895339D01*
X145807000Y-61058661D01*
X145811465Y-61013326D01*
X145822899Y-60975633D01*
X145841466Y-60940897D01*
X145866452Y-60910452D01*
X145896897Y-60885466D01*
X145931633Y-60866899D01*
X145969326Y-60855465D01*
X146014661Y-60851000D01*
X147101339Y-60851000D01*
X147146674Y-60855465D01*
G37*
G36*
X131790674Y-60467465D02*
G01*
X131828367Y-60478899D01*
X131863103Y-60497466D01*
X131893548Y-60522452D01*
X131918534Y-60552897D01*
X131937101Y-60587633D01*
X131948535Y-60625326D01*
X131953000Y-60670661D01*
X131953000Y-61757339D01*
X131948535Y-61802674D01*
X131937101Y-61840367D01*
X131918534Y-61875103D01*
X131893548Y-61905548D01*
X131863103Y-61930534D01*
X131828367Y-61949101D01*
X131790674Y-61960535D01*
X131745339Y-61965000D01*
X130908661Y-61965000D01*
X130863326Y-61960535D01*
X130825633Y-61949101D01*
X130790897Y-61930534D01*
X130760452Y-61905548D01*
X130735466Y-61875103D01*
X130716899Y-61840367D01*
X130705465Y-61802674D01*
X130701000Y-61757339D01*
X130701000Y-60670661D01*
X130705465Y-60625326D01*
X130716899Y-60587633D01*
X130735466Y-60552897D01*
X130760452Y-60522452D01*
X130790897Y-60497466D01*
X130825633Y-60478899D01*
X130863326Y-60467465D01*
X130908661Y-60463000D01*
X131745339Y-60463000D01*
X131790674Y-60467465D01*
G37*
G36*
X129740674Y-60467465D02*
G01*
X129778367Y-60478899D01*
X129813103Y-60497466D01*
X129843548Y-60522452D01*
X129868534Y-60552897D01*
X129887101Y-60587633D01*
X129898535Y-60625326D01*
X129903000Y-60670661D01*
X129903000Y-61757339D01*
X129898535Y-61802674D01*
X129887101Y-61840367D01*
X129868534Y-61875103D01*
X129843548Y-61905548D01*
X129813103Y-61930534D01*
X129778367Y-61949101D01*
X129740674Y-61960535D01*
X129695339Y-61965000D01*
X128858661Y-61965000D01*
X128813326Y-61960535D01*
X128775633Y-61949101D01*
X128740897Y-61930534D01*
X128710452Y-61905548D01*
X128685466Y-61875103D01*
X128666899Y-61840367D01*
X128655465Y-61802674D01*
X128651000Y-61757339D01*
X128651000Y-60670661D01*
X128655465Y-60625326D01*
X128666899Y-60587633D01*
X128685466Y-60552897D01*
X128710452Y-60522452D01*
X128740897Y-60497466D01*
X128775633Y-60478899D01*
X128813326Y-60467465D01*
X128858661Y-60463000D01*
X129695339Y-60463000D01*
X129740674Y-60467465D01*
G37*
G36*
X110902000Y-61438000D02*
G01*
X109250000Y-61438000D01*
X109250000Y-60736000D01*
X110902000Y-60736000D01*
X110902000Y-61438000D01*
G37*
G36*
X116302000Y-61438000D02*
G01*
X114650000Y-61438000D01*
X114650000Y-60736000D01*
X116302000Y-60736000D01*
X116302000Y-61438000D01*
G37*
G36*
X127638000Y-61311000D02*
G01*
X125986000Y-61311000D01*
X125986000Y-60609000D01*
X127638000Y-60609000D01*
X127638000Y-61311000D01*
G37*
G36*
X122238000Y-61311000D02*
G01*
X120586000Y-61311000D01*
X120586000Y-60609000D01*
X122238000Y-60609000D01*
X122238000Y-61311000D01*
G37*
G36*
X135747000Y-60955000D02*
G01*
X133695000Y-60955000D01*
X133695000Y-60203000D01*
X135747000Y-60203000D01*
X135747000Y-60955000D01*
G37*
G36*
X145197000Y-60955000D02*
G01*
X143145000Y-60955000D01*
X143145000Y-60203000D01*
X145197000Y-60203000D01*
X145197000Y-60955000D01*
G37*
G36*
X119206674Y-59585465D02*
G01*
X119244367Y-59596899D01*
X119279103Y-59615466D01*
X119309548Y-59640452D01*
X119334534Y-59670897D01*
X119353101Y-59705633D01*
X119364535Y-59743326D01*
X119369000Y-59788661D01*
X119369000Y-60625339D01*
X119364535Y-60670674D01*
X119353101Y-60708367D01*
X119334534Y-60743103D01*
X119309548Y-60773548D01*
X119279103Y-60798534D01*
X119244367Y-60817101D01*
X119206674Y-60828535D01*
X119161339Y-60833000D01*
X118074661Y-60833000D01*
X118029326Y-60828535D01*
X117991633Y-60817101D01*
X117956897Y-60798534D01*
X117926452Y-60773548D01*
X117901466Y-60743103D01*
X117882899Y-60708367D01*
X117871465Y-60670674D01*
X117867000Y-60625339D01*
X117867000Y-59788661D01*
X117871465Y-59743326D01*
X117882899Y-59705633D01*
X117901466Y-59670897D01*
X117926452Y-59640452D01*
X117956897Y-59615466D01*
X117991633Y-59596899D01*
X118029326Y-59585465D01*
X118074661Y-59581000D01*
X119161339Y-59581000D01*
X119206674Y-59585465D01*
G37*
G36*
X110902000Y-60168000D02*
G01*
X109250000Y-60168000D01*
X109250000Y-59466000D01*
X110902000Y-59466000D01*
X110902000Y-60168000D01*
G37*
G36*
X116302000Y-60168000D02*
G01*
X114650000Y-60168000D01*
X114650000Y-59466000D01*
X116302000Y-59466000D01*
X116302000Y-60168000D01*
G37*
G36*
X147146674Y-58805465D02*
G01*
X147184367Y-58816899D01*
X147219103Y-58835466D01*
X147249548Y-58860452D01*
X147274534Y-58890897D01*
X147293101Y-58925633D01*
X147304535Y-58963326D01*
X147309000Y-59008661D01*
X147309000Y-59845339D01*
X147304535Y-59890674D01*
X147293101Y-59928367D01*
X147274534Y-59963103D01*
X147249548Y-59993548D01*
X147219103Y-60018534D01*
X147184367Y-60037101D01*
X147146674Y-60048535D01*
X147101339Y-60053000D01*
X146014661Y-60053000D01*
X145969326Y-60048535D01*
X145931633Y-60037101D01*
X145896897Y-60018534D01*
X145866452Y-59993548D01*
X145841466Y-59963103D01*
X145822899Y-59928367D01*
X145811465Y-59890674D01*
X145807000Y-59845339D01*
X145807000Y-59008661D01*
X145811465Y-58963326D01*
X145822899Y-58925633D01*
X145841466Y-58890897D01*
X145866452Y-58860452D01*
X145896897Y-58835466D01*
X145931633Y-58816899D01*
X145969326Y-58805465D01*
X146014661Y-58801000D01*
X147101339Y-58801000D01*
X147146674Y-58805465D01*
G37*
G36*
X149178674Y-58805465D02*
G01*
X149216367Y-58816899D01*
X149251103Y-58835466D01*
X149281548Y-58860452D01*
X149306534Y-58890897D01*
X149325101Y-58925633D01*
X149336535Y-58963326D01*
X149341000Y-59008661D01*
X149341000Y-59845339D01*
X149336535Y-59890674D01*
X149325101Y-59928367D01*
X149306534Y-59963103D01*
X149281548Y-59993548D01*
X149251103Y-60018534D01*
X149216367Y-60037101D01*
X149178674Y-60048535D01*
X149133339Y-60053000D01*
X148046661Y-60053000D01*
X148001326Y-60048535D01*
X147963633Y-60037101D01*
X147928897Y-60018534D01*
X147898452Y-59993548D01*
X147873466Y-59963103D01*
X147854899Y-59928367D01*
X147843465Y-59890674D01*
X147839000Y-59845339D01*
X147839000Y-59008661D01*
X147843465Y-58963326D01*
X147854899Y-58925633D01*
X147873466Y-58890897D01*
X147898452Y-58860452D01*
X147928897Y-58835466D01*
X147963633Y-58816899D01*
X148001326Y-58805465D01*
X148046661Y-58801000D01*
X149133339Y-58801000D01*
X149178674Y-58805465D01*
G37*
G36*
X127638000Y-60041000D02*
G01*
X125986000Y-60041000D01*
X125986000Y-59339000D01*
X127638000Y-59339000D01*
X127638000Y-60041000D01*
G37*
G36*
X122238000Y-60041000D02*
G01*
X120586000Y-60041000D01*
X120586000Y-59339000D01*
X122238000Y-59339000D01*
X122238000Y-60041000D01*
G37*
G36*
X105628674Y-58435465D02*
G01*
X105666367Y-58446899D01*
X105701103Y-58465466D01*
X105731548Y-58490452D01*
X105756534Y-58520897D01*
X105775101Y-58555633D01*
X105786535Y-58593326D01*
X105791000Y-58638661D01*
X105791000Y-59725339D01*
X105786535Y-59770674D01*
X105775101Y-59808367D01*
X105756534Y-59843103D01*
X105731548Y-59873548D01*
X105701103Y-59898534D01*
X105666367Y-59917101D01*
X105628674Y-59928535D01*
X105583339Y-59933000D01*
X104746661Y-59933000D01*
X104701326Y-59928535D01*
X104663633Y-59917101D01*
X104628897Y-59898534D01*
X104598452Y-59873548D01*
X104573466Y-59843103D01*
X104554899Y-59808367D01*
X104543465Y-59770674D01*
X104539000Y-59725339D01*
X104539000Y-58638661D01*
X104543465Y-58593326D01*
X104554899Y-58555633D01*
X104573466Y-58520897D01*
X104598452Y-58490452D01*
X104628897Y-58465466D01*
X104663633Y-58446899D01*
X104701326Y-58435465D01*
X104746661Y-58431000D01*
X105583339Y-58431000D01*
X105628674Y-58435465D01*
G37*
G36*
X103578674Y-58435465D02*
G01*
X103616367Y-58446899D01*
X103651103Y-58465466D01*
X103681548Y-58490452D01*
X103706534Y-58520897D01*
X103725101Y-58555633D01*
X103736535Y-58593326D01*
X103741000Y-58638661D01*
X103741000Y-59725339D01*
X103736535Y-59770674D01*
X103725101Y-59808367D01*
X103706534Y-59843103D01*
X103681548Y-59873548D01*
X103651103Y-59898534D01*
X103616367Y-59917101D01*
X103578674Y-59928535D01*
X103533339Y-59933000D01*
X102696661Y-59933000D01*
X102651326Y-59928535D01*
X102613633Y-59917101D01*
X102578897Y-59898534D01*
X102548452Y-59873548D01*
X102523466Y-59843103D01*
X102504899Y-59808367D01*
X102493465Y-59770674D01*
X102489000Y-59725339D01*
X102489000Y-58638661D01*
X102493465Y-58593326D01*
X102504899Y-58555633D01*
X102523466Y-58520897D01*
X102548452Y-58490452D01*
X102578897Y-58465466D01*
X102613633Y-58446899D01*
X102651326Y-58435465D01*
X102696661Y-58431000D01*
X103533339Y-58431000D01*
X103578674Y-58435465D01*
G37*
G36*
X108284674Y-58569465D02*
G01*
X108322367Y-58580899D01*
X108357103Y-58599466D01*
X108387548Y-58624452D01*
X108412534Y-58654897D01*
X108431101Y-58689633D01*
X108442535Y-58727326D01*
X108447000Y-58772661D01*
X108447000Y-59609339D01*
X108442535Y-59654674D01*
X108431101Y-59692367D01*
X108412534Y-59727103D01*
X108387548Y-59757548D01*
X108357103Y-59782534D01*
X108322367Y-59801101D01*
X108284674Y-59812535D01*
X108239339Y-59817000D01*
X107152661Y-59817000D01*
X107107326Y-59812535D01*
X107069633Y-59801101D01*
X107034897Y-59782534D01*
X107004452Y-59757548D01*
X106979466Y-59727103D01*
X106960899Y-59692367D01*
X106949465Y-59654674D01*
X106945000Y-59609339D01*
X106945000Y-58772661D01*
X106949465Y-58727326D01*
X106960899Y-58689633D01*
X106979466Y-58654897D01*
X107004452Y-58624452D01*
X107034897Y-58599466D01*
X107069633Y-58580899D01*
X107107326Y-58569465D01*
X107152661Y-58565000D01*
X108239339Y-58565000D01*
X108284674Y-58569465D01*
G37*
G36*
X145197000Y-59685000D02*
G01*
X143145000Y-59685000D01*
X143145000Y-58933000D01*
X145197000Y-58933000D01*
X145197000Y-59685000D01*
G37*
G36*
X135747000Y-59685000D02*
G01*
X133695000Y-59685000D01*
X133695000Y-58933000D01*
X135747000Y-58933000D01*
X135747000Y-59685000D01*
G37*
G36*
X129731674Y-58181465D02*
G01*
X129769367Y-58192899D01*
X129804103Y-58211466D01*
X129834548Y-58236452D01*
X129859534Y-58266897D01*
X129878101Y-58301633D01*
X129889535Y-58339326D01*
X129894000Y-58384661D01*
X129894000Y-59471339D01*
X129889535Y-59516674D01*
X129878101Y-59554367D01*
X129859534Y-59589103D01*
X129834548Y-59619548D01*
X129804103Y-59644534D01*
X129769367Y-59663101D01*
X129731674Y-59674535D01*
X129686339Y-59679000D01*
X128849661Y-59679000D01*
X128804326Y-59674535D01*
X128766633Y-59663101D01*
X128731897Y-59644534D01*
X128701452Y-59619548D01*
X128676466Y-59589103D01*
X128657899Y-59554367D01*
X128646465Y-59516674D01*
X128642000Y-59471339D01*
X128642000Y-58384661D01*
X128646465Y-58339326D01*
X128657899Y-58301633D01*
X128676466Y-58266897D01*
X128701452Y-58236452D01*
X128731897Y-58211466D01*
X128766633Y-58192899D01*
X128804326Y-58181465D01*
X128849661Y-58177000D01*
X129686339Y-58177000D01*
X129731674Y-58181465D01*
G37*
G36*
X131781674Y-58181465D02*
G01*
X131819367Y-58192899D01*
X131854103Y-58211466D01*
X131884548Y-58236452D01*
X131909534Y-58266897D01*
X131928101Y-58301633D01*
X131939535Y-58339326D01*
X131944000Y-58384661D01*
X131944000Y-59471339D01*
X131939535Y-59516674D01*
X131928101Y-59554367D01*
X131909534Y-59589103D01*
X131884548Y-59619548D01*
X131854103Y-59644534D01*
X131819367Y-59663101D01*
X131781674Y-59674535D01*
X131736339Y-59679000D01*
X130899661Y-59679000D01*
X130854326Y-59674535D01*
X130816633Y-59663101D01*
X130781897Y-59644534D01*
X130751452Y-59619548D01*
X130726466Y-59589103D01*
X130707899Y-59554367D01*
X130696465Y-59516674D01*
X130692000Y-59471339D01*
X130692000Y-58384661D01*
X130696465Y-58339326D01*
X130707899Y-58301633D01*
X130726466Y-58266897D01*
X130751452Y-58236452D01*
X130781897Y-58211466D01*
X130816633Y-58192899D01*
X130854326Y-58181465D01*
X130899661Y-58177000D01*
X131736339Y-58177000D01*
X131781674Y-58181465D01*
G37*
G36*
X116302000Y-58898000D02*
G01*
X114650000Y-58898000D01*
X114650000Y-58196000D01*
X116302000Y-58196000D01*
X116302000Y-58898000D01*
G37*
G36*
X110902000Y-58898000D02*
G01*
X109250000Y-58898000D01*
X109250000Y-58196000D01*
X110902000Y-58196000D01*
X110902000Y-58898000D01*
G37*
G36*
X119206674Y-57535465D02*
G01*
X119244367Y-57546899D01*
X119279103Y-57565466D01*
X119309548Y-57590452D01*
X119334534Y-57620897D01*
X119353101Y-57655633D01*
X119364535Y-57693326D01*
X119369000Y-57738661D01*
X119369000Y-58575339D01*
X119364535Y-58620674D01*
X119353101Y-58658367D01*
X119334534Y-58693103D01*
X119309548Y-58723548D01*
X119279103Y-58748534D01*
X119244367Y-58767101D01*
X119206674Y-58778535D01*
X119161339Y-58783000D01*
X118074661Y-58783000D01*
X118029326Y-58778535D01*
X117991633Y-58767101D01*
X117956897Y-58748534D01*
X117926452Y-58723548D01*
X117901466Y-58693103D01*
X117882899Y-58658367D01*
X117871465Y-58620674D01*
X117867000Y-58575339D01*
X117867000Y-57738661D01*
X117871465Y-57693326D01*
X117882899Y-57655633D01*
X117901466Y-57620897D01*
X117926452Y-57590452D01*
X117956897Y-57565466D01*
X117991633Y-57546899D01*
X118029326Y-57535465D01*
X118074661Y-57531000D01*
X119161339Y-57531000D01*
X119206674Y-57535465D01*
G37*
G36*
X127638000Y-58771000D02*
G01*
X125986000Y-58771000D01*
X125986000Y-58069000D01*
X127638000Y-58069000D01*
X127638000Y-58771000D01*
G37*
G36*
X122238000Y-58771000D02*
G01*
X120586000Y-58771000D01*
X120586000Y-58069000D01*
X122238000Y-58069000D01*
X122238000Y-58771000D01*
G37*
G36*
X135747000Y-58415000D02*
G01*
X133695000Y-58415000D01*
X133695000Y-57663000D01*
X135747000Y-57663000D01*
X135747000Y-58415000D01*
G37*
G36*
X145197000Y-58415000D02*
G01*
X143145000Y-58415000D01*
X143145000Y-57663000D01*
X145197000Y-57663000D01*
X145197000Y-58415000D01*
G37*
G36*
X108284674Y-56519465D02*
G01*
X108322367Y-56530899D01*
X108357103Y-56549466D01*
X108387548Y-56574452D01*
X108412534Y-56604897D01*
X108431101Y-56639633D01*
X108442535Y-56677326D01*
X108447000Y-56722661D01*
X108447000Y-57559339D01*
X108442535Y-57604674D01*
X108431101Y-57642367D01*
X108412534Y-57677103D01*
X108387548Y-57707548D01*
X108357103Y-57732534D01*
X108322367Y-57751101D01*
X108284674Y-57762535D01*
X108239339Y-57767000D01*
X107152661Y-57767000D01*
X107107326Y-57762535D01*
X107069633Y-57751101D01*
X107034897Y-57732534D01*
X107004452Y-57707548D01*
X106979466Y-57677103D01*
X106960899Y-57642367D01*
X106949465Y-57604674D01*
X106945000Y-57559339D01*
X106945000Y-56722661D01*
X106949465Y-56677326D01*
X106960899Y-56639633D01*
X106979466Y-56604897D01*
X107004452Y-56574452D01*
X107034897Y-56549466D01*
X107069633Y-56530899D01*
X107107326Y-56519465D01*
X107152661Y-56515000D01*
X108239339Y-56515000D01*
X108284674Y-56519465D01*
G37*
G36*
X103569674Y-56149465D02*
G01*
X103607367Y-56160899D01*
X103642103Y-56179466D01*
X103672548Y-56204452D01*
X103697534Y-56234897D01*
X103716101Y-56269633D01*
X103727535Y-56307326D01*
X103732000Y-56352661D01*
X103732000Y-57439339D01*
X103727535Y-57484674D01*
X103716101Y-57522367D01*
X103697534Y-57557103D01*
X103672548Y-57587548D01*
X103642103Y-57612534D01*
X103607367Y-57631101D01*
X103569674Y-57642535D01*
X103524339Y-57647000D01*
X102687661Y-57647000D01*
X102642326Y-57642535D01*
X102604633Y-57631101D01*
X102569897Y-57612534D01*
X102539452Y-57587548D01*
X102514466Y-57557103D01*
X102495899Y-57522367D01*
X102484465Y-57484674D01*
X102480000Y-57439339D01*
X102480000Y-56352661D01*
X102484465Y-56307326D01*
X102495899Y-56269633D01*
X102514466Y-56234897D01*
X102539452Y-56204452D01*
X102569897Y-56179466D01*
X102604633Y-56160899D01*
X102642326Y-56149465D01*
X102687661Y-56145000D01*
X103524339Y-56145000D01*
X103569674Y-56149465D01*
G37*
G36*
X131790674Y-56149465D02*
G01*
X131828367Y-56160899D01*
X131863103Y-56179466D01*
X131893548Y-56204452D01*
X131918534Y-56234897D01*
X131937101Y-56269633D01*
X131948535Y-56307326D01*
X131953000Y-56352661D01*
X131953000Y-57439339D01*
X131948535Y-57484674D01*
X131937101Y-57522367D01*
X131918534Y-57557103D01*
X131893548Y-57587548D01*
X131863103Y-57612534D01*
X131828367Y-57631101D01*
X131790674Y-57642535D01*
X131745339Y-57647000D01*
X130908661Y-57647000D01*
X130863326Y-57642535D01*
X130825633Y-57631101D01*
X130790897Y-57612534D01*
X130760452Y-57587548D01*
X130735466Y-57557103D01*
X130716899Y-57522367D01*
X130705465Y-57484674D01*
X130701000Y-57439339D01*
X130701000Y-56352661D01*
X130705465Y-56307326D01*
X130716899Y-56269633D01*
X130735466Y-56234897D01*
X130760452Y-56204452D01*
X130790897Y-56179466D01*
X130825633Y-56160899D01*
X130863326Y-56149465D01*
X130908661Y-56145000D01*
X131745339Y-56145000D01*
X131790674Y-56149465D01*
G37*
G36*
X129740674Y-56149465D02*
G01*
X129778367Y-56160899D01*
X129813103Y-56179466D01*
X129843548Y-56204452D01*
X129868534Y-56234897D01*
X129887101Y-56269633D01*
X129898535Y-56307326D01*
X129903000Y-56352661D01*
X129903000Y-57439339D01*
X129898535Y-57484674D01*
X129887101Y-57522367D01*
X129868534Y-57557103D01*
X129843548Y-57587548D01*
X129813103Y-57612534D01*
X129778367Y-57631101D01*
X129740674Y-57642535D01*
X129695339Y-57647000D01*
X128858661Y-57647000D01*
X128813326Y-57642535D01*
X128775633Y-57631101D01*
X128740897Y-57612534D01*
X128710452Y-57587548D01*
X128685466Y-57557103D01*
X128666899Y-57522367D01*
X128655465Y-57484674D01*
X128651000Y-57439339D01*
X128651000Y-56352661D01*
X128655465Y-56307326D01*
X128666899Y-56269633D01*
X128685466Y-56234897D01*
X128710452Y-56204452D01*
X128740897Y-56179466D01*
X128775633Y-56160899D01*
X128813326Y-56149465D01*
X128858661Y-56145000D01*
X129695339Y-56145000D01*
X129740674Y-56149465D01*
G37*
G36*
X105619674Y-56149465D02*
G01*
X105657367Y-56160899D01*
X105692103Y-56179466D01*
X105722548Y-56204452D01*
X105747534Y-56234897D01*
X105766101Y-56269633D01*
X105777535Y-56307326D01*
X105782000Y-56352661D01*
X105782000Y-57439339D01*
X105777535Y-57484674D01*
X105766101Y-57522367D01*
X105747534Y-57557103D01*
X105722548Y-57587548D01*
X105692103Y-57612534D01*
X105657367Y-57631101D01*
X105619674Y-57642535D01*
X105574339Y-57647000D01*
X104737661Y-57647000D01*
X104692326Y-57642535D01*
X104654633Y-57631101D01*
X104619897Y-57612534D01*
X104589452Y-57587548D01*
X104564466Y-57557103D01*
X104545899Y-57522367D01*
X104534465Y-57484674D01*
X104530000Y-57439339D01*
X104530000Y-56352661D01*
X104534465Y-56307326D01*
X104545899Y-56269633D01*
X104564466Y-56234897D01*
X104589452Y-56204452D01*
X104619897Y-56179466D01*
X104654633Y-56160899D01*
X104692326Y-56149465D01*
X104737661Y-56145000D01*
X105574339Y-56145000D01*
X105619674Y-56149465D01*
G37*
G36*
X110902000Y-57628000D02*
G01*
X109250000Y-57628000D01*
X109250000Y-56926000D01*
X110902000Y-56926000D01*
X110902000Y-57628000D01*
G37*
G36*
X116302000Y-57628000D02*
G01*
X114650000Y-57628000D01*
X114650000Y-56926000D01*
X116302000Y-56926000D01*
X116302000Y-57628000D01*
G37*
G36*
X127638000Y-57501000D02*
G01*
X125986000Y-57501000D01*
X125986000Y-56799000D01*
X127638000Y-56799000D01*
X127638000Y-57501000D01*
G37*
G36*
X122238000Y-57501000D02*
G01*
X120586000Y-57501000D01*
X120586000Y-56799000D01*
X122238000Y-56799000D01*
X122238000Y-57501000D01*
G37*
G36*
X135747000Y-57145000D02*
G01*
X133695000Y-57145000D01*
X133695000Y-56393000D01*
X135747000Y-56393000D01*
X135747000Y-57145000D01*
G37*
G36*
X145197000Y-57145000D02*
G01*
X143145000Y-57145000D01*
X143145000Y-56393000D01*
X145197000Y-56393000D01*
X145197000Y-57145000D01*
G37*
G36*
X135747000Y-55875000D02*
G01*
X133695000Y-55875000D01*
X133695000Y-55123000D01*
X135747000Y-55123000D01*
X135747000Y-55875000D01*
G37*
G36*
X145197000Y-55875000D02*
G01*
X143145000Y-55875000D01*
X143145000Y-55123000D01*
X145197000Y-55123000D01*
X145197000Y-55875000D01*
G37*
G36*
X128663000Y-55257000D02*
G01*
X126861000Y-55257000D01*
X126861000Y-53455000D01*
X128663000Y-53455000D01*
X128663000Y-55257000D01*
G37*
G36*
X147146674Y-53997465D02*
G01*
X147184367Y-54008899D01*
X147219103Y-54027466D01*
X147249548Y-54052452D01*
X147274534Y-54082897D01*
X147293101Y-54117633D01*
X147304535Y-54155326D01*
X147309000Y-54200661D01*
X147309000Y-55037339D01*
X147304535Y-55082674D01*
X147293101Y-55120367D01*
X147274534Y-55155103D01*
X147249548Y-55185548D01*
X147219103Y-55210534D01*
X147184367Y-55229101D01*
X147146674Y-55240535D01*
X147101339Y-55245000D01*
X146014661Y-55245000D01*
X145969326Y-55240535D01*
X145931633Y-55229101D01*
X145896897Y-55210534D01*
X145866452Y-55185548D01*
X145841466Y-55155103D01*
X145822899Y-55120367D01*
X145811465Y-55082674D01*
X145807000Y-55037339D01*
X145807000Y-54200661D01*
X145811465Y-54155326D01*
X145822899Y-54117633D01*
X145841466Y-54082897D01*
X145866452Y-54052452D01*
X145896897Y-54027466D01*
X145931633Y-54008899D01*
X145969326Y-53997465D01*
X146014661Y-53993000D01*
X147101339Y-53993000D01*
X147146674Y-53997465D01*
G37*
G36*
X149178674Y-53997465D02*
G01*
X149216367Y-54008899D01*
X149251103Y-54027466D01*
X149281548Y-54052452D01*
X149306534Y-54082897D01*
X149325101Y-54117633D01*
X149336535Y-54155326D01*
X149341000Y-54200661D01*
X149341000Y-55037339D01*
X149336535Y-55082674D01*
X149325101Y-55120367D01*
X149306534Y-55155103D01*
X149281548Y-55185548D01*
X149251103Y-55210534D01*
X149216367Y-55229101D01*
X149178674Y-55240535D01*
X149133339Y-55245000D01*
X148046661Y-55245000D01*
X148001326Y-55240535D01*
X147963633Y-55229101D01*
X147928897Y-55210534D01*
X147898452Y-55185548D01*
X147873466Y-55155103D01*
X147854899Y-55120367D01*
X147843465Y-55082674D01*
X147839000Y-55037339D01*
X147839000Y-54200661D01*
X147843465Y-54155326D01*
X147854899Y-54117633D01*
X147873466Y-54082897D01*
X147898452Y-54052452D01*
X147928897Y-54027466D01*
X147963633Y-54008899D01*
X148001326Y-53997465D01*
X148046661Y-53993000D01*
X149133339Y-53993000D01*
X149178674Y-53997465D01*
G37*
G36*
X145197000Y-54605000D02*
G01*
X143145000Y-54605000D01*
X143145000Y-53853000D01*
X145197000Y-53853000D01*
X145197000Y-54605000D01*
G37*
G36*
X135747000Y-54605000D02*
G01*
X133695000Y-54605000D01*
X133695000Y-53853000D01*
X135747000Y-53853000D01*
X135747000Y-54605000D01*
G37*
G36*
X135747000Y-53335000D02*
G01*
X133695000Y-53335000D01*
X133695000Y-52583000D01*
X135747000Y-52583000D01*
X135747000Y-53335000D01*
G37*
G36*
X145197000Y-53335000D02*
G01*
X143145000Y-53335000D01*
X143145000Y-52583000D01*
X145197000Y-52583000D01*
X145197000Y-53335000D01*
G37*
G36*
X149178674Y-51947465D02*
G01*
X149216367Y-51958899D01*
X149251103Y-51977466D01*
X149281548Y-52002452D01*
X149306534Y-52032897D01*
X149325101Y-52067633D01*
X149336535Y-52105326D01*
X149341000Y-52150661D01*
X149341000Y-52987339D01*
X149336535Y-53032674D01*
X149325101Y-53070367D01*
X149306534Y-53105103D01*
X149281548Y-53135548D01*
X149251103Y-53160534D01*
X149216367Y-53179101D01*
X149178674Y-53190535D01*
X149133339Y-53195000D01*
X148046661Y-53195000D01*
X148001326Y-53190535D01*
X147963633Y-53179101D01*
X147928897Y-53160534D01*
X147898452Y-53135548D01*
X147873466Y-53105103D01*
X147854899Y-53070367D01*
X147843465Y-53032674D01*
X147839000Y-52987339D01*
X147839000Y-52150661D01*
X147843465Y-52105326D01*
X147854899Y-52067633D01*
X147873466Y-52032897D01*
X147898452Y-52002452D01*
X147928897Y-51977466D01*
X147963633Y-51958899D01*
X148001326Y-51947465D01*
X148046661Y-51943000D01*
X149133339Y-51943000D01*
X149178674Y-51947465D01*
G37*
G36*
X147146674Y-51947465D02*
G01*
X147184367Y-51958899D01*
X147219103Y-51977466D01*
X147249548Y-52002452D01*
X147274534Y-52032897D01*
X147293101Y-52067633D01*
X147304535Y-52105326D01*
X147309000Y-52150661D01*
X147309000Y-52987339D01*
X147304535Y-53032674D01*
X147293101Y-53070367D01*
X147274534Y-53105103D01*
X147249548Y-53135548D01*
X147219103Y-53160534D01*
X147184367Y-53179101D01*
X147146674Y-53190535D01*
X147101339Y-53195000D01*
X146014661Y-53195000D01*
X145969326Y-53190535D01*
X145931633Y-53179101D01*
X145896897Y-53160534D01*
X145866452Y-53135548D01*
X145841466Y-53105103D01*
X145822899Y-53070367D01*
X145811465Y-53032674D01*
X145807000Y-52987339D01*
X145807000Y-52150661D01*
X145811465Y-52105326D01*
X145822899Y-52067633D01*
X145841466Y-52032897D01*
X145866452Y-52002452D01*
X145896897Y-51977466D01*
X145931633Y-51958899D01*
X145969326Y-51947465D01*
X146014661Y-51943000D01*
X147101339Y-51943000D01*
X147146674Y-51947465D01*
G37*
G36*
X131906674Y-51711465D02*
G01*
X131944367Y-51722899D01*
X131979103Y-51741466D01*
X132009548Y-51766452D01*
X132034534Y-51796897D01*
X132053101Y-51831633D01*
X132064535Y-51869326D01*
X132069000Y-51914661D01*
X132069000Y-52751339D01*
X132064535Y-52796674D01*
X132053101Y-52834367D01*
X132034534Y-52869103D01*
X132009548Y-52899548D01*
X131979103Y-52924534D01*
X131944367Y-52943101D01*
X131906674Y-52954535D01*
X131861339Y-52959000D01*
X130774661Y-52959000D01*
X130729326Y-52954535D01*
X130691633Y-52943101D01*
X130656897Y-52924534D01*
X130626452Y-52899548D01*
X130601466Y-52869103D01*
X130582899Y-52834367D01*
X130571465Y-52796674D01*
X130567000Y-52751339D01*
X130567000Y-51914661D01*
X130571465Y-51869326D01*
X130582899Y-51831633D01*
X130601466Y-51796897D01*
X130626452Y-51766452D01*
X130656897Y-51741466D01*
X130691633Y-51722899D01*
X130729326Y-51711465D01*
X130774661Y-51707000D01*
X131861339Y-51707000D01*
X131906674Y-51711465D01*
G37*
G36*
X127875512Y-50919927D02*
G01*
X128024812Y-50949624D01*
X128188784Y-51017544D01*
X128336354Y-51116147D01*
X128461853Y-51241646D01*
X128560456Y-51389216D01*
X128628376Y-51553188D01*
X128658073Y-51702488D01*
X128659859Y-51711465D01*
X128663000Y-51727259D01*
X128663000Y-51904741D01*
X128628376Y-52078812D01*
X128560456Y-52242784D01*
X128461853Y-52390354D01*
X128336354Y-52515853D01*
X128188784Y-52614456D01*
X128024812Y-52682376D01*
X127875512Y-52712073D01*
X127850742Y-52717000D01*
X127673258Y-52717000D01*
X127648488Y-52712073D01*
X127499188Y-52682376D01*
X127335216Y-52614456D01*
X127187646Y-52515853D01*
X127062147Y-52390354D01*
X126963544Y-52242784D01*
X126895624Y-52078812D01*
X126861000Y-51904741D01*
X126861000Y-51727259D01*
X126864142Y-51711465D01*
X126865927Y-51702488D01*
X126895624Y-51553188D01*
X126963544Y-51389216D01*
X127062147Y-51241646D01*
X127187646Y-51116147D01*
X127335216Y-51017544D01*
X127499188Y-50949624D01*
X127648488Y-50919927D01*
X127673258Y-50915000D01*
X127850742Y-50915000D01*
X127875512Y-50919927D01*
G37*
G36*
X104847934Y-50010671D02*
G01*
X104877877Y-50019754D01*
X104905465Y-50034500D01*
X104929651Y-50054349D01*
X104949500Y-50078535D01*
X104964246Y-50106123D01*
X104973329Y-50136066D01*
X104977000Y-50173340D01*
X104977000Y-52442660D01*
X104973329Y-52479934D01*
X104964246Y-52509877D01*
X104949500Y-52537465D01*
X104929651Y-52561651D01*
X104905465Y-52581500D01*
X104877877Y-52596246D01*
X104847934Y-52605329D01*
X104810660Y-52609000D01*
X100641340Y-52609000D01*
X100604066Y-52605329D01*
X100574123Y-52596246D01*
X100546535Y-52581500D01*
X100522349Y-52561651D01*
X100502500Y-52537465D01*
X100487754Y-52509877D01*
X100478671Y-52479934D01*
X100475000Y-52442660D01*
X100475000Y-50173340D01*
X100478671Y-50136066D01*
X100487754Y-50106123D01*
X100502500Y-50078535D01*
X100522349Y-50054349D01*
X100546535Y-50034500D01*
X100574123Y-50019754D01*
X100604066Y-50010671D01*
X100641340Y-50007000D01*
X104810660Y-50007000D01*
X104847934Y-50010671D01*
G37*
G36*
X117945934Y-50010671D02*
G01*
X117975877Y-50019754D01*
X118003465Y-50034500D01*
X118027651Y-50054349D01*
X118047500Y-50078535D01*
X118062246Y-50106123D01*
X118071329Y-50136066D01*
X118075000Y-50173340D01*
X118075000Y-52442660D01*
X118071329Y-52479934D01*
X118062246Y-52509877D01*
X118047500Y-52537465D01*
X118027651Y-52561651D01*
X118003465Y-52581500D01*
X117975877Y-52596246D01*
X117945934Y-52605329D01*
X117908660Y-52609000D01*
X113739340Y-52609000D01*
X113702066Y-52605329D01*
X113672123Y-52596246D01*
X113644535Y-52581500D01*
X113620349Y-52561651D01*
X113600500Y-52537465D01*
X113585754Y-52509877D01*
X113576671Y-52479934D01*
X113573000Y-52442660D01*
X113573000Y-50173340D01*
X113576671Y-50136066D01*
X113585754Y-50106123D01*
X113600500Y-50078535D01*
X113620349Y-50054349D01*
X113644535Y-50034500D01*
X113672123Y-50019754D01*
X113702066Y-50010671D01*
X113739340Y-50007000D01*
X117908660Y-50007000D01*
X117945934Y-50010671D01*
G37*
G36*
X125345934Y-50010671D02*
G01*
X125375877Y-50019754D01*
X125403465Y-50034500D01*
X125427651Y-50054349D01*
X125447500Y-50078535D01*
X125462246Y-50106123D01*
X125471329Y-50136066D01*
X125475000Y-50173340D01*
X125475000Y-52442660D01*
X125471329Y-52479934D01*
X125462246Y-52509877D01*
X125447500Y-52537465D01*
X125427651Y-52561651D01*
X125403465Y-52581500D01*
X125375877Y-52596246D01*
X125345934Y-52605329D01*
X125308660Y-52609000D01*
X121139340Y-52609000D01*
X121102066Y-52605329D01*
X121072123Y-52596246D01*
X121044535Y-52581500D01*
X121020349Y-52561651D01*
X121000500Y-52537465D01*
X120985754Y-52509877D01*
X120976671Y-52479934D01*
X120973000Y-52442660D01*
X120973000Y-50173340D01*
X120976671Y-50136066D01*
X120985754Y-50106123D01*
X121000500Y-50078535D01*
X121020349Y-50054349D01*
X121044535Y-50034500D01*
X121072123Y-50019754D01*
X121102066Y-50010671D01*
X121139340Y-50007000D01*
X125308660Y-50007000D01*
X125345934Y-50010671D01*
G37*
G36*
X112247934Y-50010671D02*
G01*
X112277877Y-50019754D01*
X112305465Y-50034500D01*
X112329651Y-50054349D01*
X112349500Y-50078535D01*
X112364246Y-50106123D01*
X112373329Y-50136066D01*
X112377000Y-50173340D01*
X112377000Y-52442660D01*
X112373329Y-52479934D01*
X112364246Y-52509877D01*
X112349500Y-52537465D01*
X112329651Y-52561651D01*
X112305465Y-52581500D01*
X112277877Y-52596246D01*
X112247934Y-52605329D01*
X112210660Y-52609000D01*
X108041340Y-52609000D01*
X108004066Y-52605329D01*
X107974123Y-52596246D01*
X107946535Y-52581500D01*
X107922349Y-52561651D01*
X107902500Y-52537465D01*
X107887754Y-52509877D01*
X107878671Y-52479934D01*
X107875000Y-52442660D01*
X107875000Y-50173340D01*
X107878671Y-50136066D01*
X107887754Y-50106123D01*
X107902500Y-50078535D01*
X107922349Y-50054349D01*
X107946535Y-50034500D01*
X107974123Y-50019754D01*
X108004066Y-50010671D01*
X108041340Y-50007000D01*
X112210660Y-50007000D01*
X112247934Y-50010671D01*
G37*
G36*
X145197000Y-52065000D02*
G01*
X143145000Y-52065000D01*
X143145000Y-51313000D01*
X145197000Y-51313000D01*
X145197000Y-52065000D01*
G37*
G36*
X135747000Y-52065000D02*
G01*
X133695000Y-52065000D01*
X133695000Y-51313000D01*
X135747000Y-51313000D01*
X135747000Y-52065000D01*
G37*
G36*
X131906674Y-49661465D02*
G01*
X131944367Y-49672899D01*
X131979103Y-49691466D01*
X132009548Y-49716452D01*
X132034534Y-49746897D01*
X132053101Y-49781633D01*
X132064535Y-49819326D01*
X132069000Y-49864661D01*
X132069000Y-50701339D01*
X132064535Y-50746674D01*
X132053101Y-50784367D01*
X132034534Y-50819103D01*
X132009548Y-50849548D01*
X131979103Y-50874534D01*
X131944367Y-50893101D01*
X131906674Y-50904535D01*
X131861339Y-50909000D01*
X130774661Y-50909000D01*
X130729326Y-50904535D01*
X130691633Y-50893101D01*
X130656897Y-50874534D01*
X130626452Y-50849548D01*
X130601466Y-50819103D01*
X130582899Y-50784367D01*
X130571465Y-50746674D01*
X130567000Y-50701339D01*
X130567000Y-49864661D01*
X130571465Y-49819326D01*
X130582899Y-49781633D01*
X130601466Y-49746897D01*
X130626452Y-49716452D01*
X130656897Y-49691466D01*
X130691633Y-49672899D01*
X130729326Y-49661465D01*
X130774661Y-49657000D01*
X131861339Y-49657000D01*
X131906674Y-49661465D01*
G37*
G36*
X138648674Y-48275465D02*
G01*
X138686367Y-48286899D01*
X138721103Y-48305466D01*
X138751548Y-48330452D01*
X138776534Y-48360897D01*
X138795101Y-48395633D01*
X138806535Y-48433326D01*
X138811000Y-48478661D01*
X138811000Y-49565339D01*
X138806535Y-49610674D01*
X138795101Y-49648367D01*
X138776534Y-49683103D01*
X138751548Y-49713548D01*
X138721103Y-49738534D01*
X138686367Y-49757101D01*
X138648674Y-49768535D01*
X138603339Y-49773000D01*
X137766661Y-49773000D01*
X137721326Y-49768535D01*
X137683633Y-49757101D01*
X137648897Y-49738534D01*
X137618452Y-49713548D01*
X137593466Y-49683103D01*
X137574899Y-49648367D01*
X137563465Y-49610674D01*
X137559000Y-49565339D01*
X137559000Y-48478661D01*
X137563465Y-48433326D01*
X137574899Y-48395633D01*
X137593466Y-48360897D01*
X137618452Y-48330452D01*
X137648897Y-48305466D01*
X137683633Y-48286899D01*
X137721326Y-48275465D01*
X137766661Y-48271000D01*
X138603339Y-48271000D01*
X138648674Y-48275465D01*
G37*
G36*
X141170674Y-48275465D02*
G01*
X141208367Y-48286899D01*
X141243103Y-48305466D01*
X141273548Y-48330452D01*
X141298534Y-48360897D01*
X141317101Y-48395633D01*
X141328535Y-48433326D01*
X141333000Y-48478661D01*
X141333000Y-49565339D01*
X141328535Y-49610674D01*
X141317101Y-49648367D01*
X141298534Y-49683103D01*
X141273548Y-49713548D01*
X141243103Y-49738534D01*
X141208367Y-49757101D01*
X141170674Y-49768535D01*
X141125339Y-49773000D01*
X140288661Y-49773000D01*
X140243326Y-49768535D01*
X140205633Y-49757101D01*
X140170897Y-49738534D01*
X140140452Y-49713548D01*
X140115466Y-49683103D01*
X140096899Y-49648367D01*
X140085465Y-49610674D01*
X140081000Y-49565339D01*
X140081000Y-48478661D01*
X140085465Y-48433326D01*
X140096899Y-48395633D01*
X140115466Y-48360897D01*
X140140452Y-48330452D01*
X140170897Y-48305466D01*
X140205633Y-48286899D01*
X140243326Y-48275465D01*
X140288661Y-48271000D01*
X141125339Y-48271000D01*
X141170674Y-48275465D01*
G37*
G36*
X143220674Y-48275465D02*
G01*
X143258367Y-48286899D01*
X143293103Y-48305466D01*
X143323548Y-48330452D01*
X143348534Y-48360897D01*
X143367101Y-48395633D01*
X143378535Y-48433326D01*
X143383000Y-48478661D01*
X143383000Y-49565339D01*
X143378535Y-49610674D01*
X143367101Y-49648367D01*
X143348534Y-49683103D01*
X143323548Y-49713548D01*
X143293103Y-49738534D01*
X143258367Y-49757101D01*
X143220674Y-49768535D01*
X143175339Y-49773000D01*
X142338661Y-49773000D01*
X142293326Y-49768535D01*
X142255633Y-49757101D01*
X142220897Y-49738534D01*
X142190452Y-49713548D01*
X142165466Y-49683103D01*
X142146899Y-49648367D01*
X142135465Y-49610674D01*
X142131000Y-49565339D01*
X142131000Y-48478661D01*
X142135465Y-48433326D01*
X142146899Y-48395633D01*
X142165466Y-48360897D01*
X142190452Y-48330452D01*
X142220897Y-48305466D01*
X142255633Y-48286899D01*
X142293326Y-48275465D01*
X142338661Y-48271000D01*
X143175339Y-48271000D01*
X143220674Y-48275465D01*
G37*
G36*
X136598674Y-48275465D02*
G01*
X136636367Y-48286899D01*
X136671103Y-48305466D01*
X136701548Y-48330452D01*
X136726534Y-48360897D01*
X136745101Y-48395633D01*
X136756535Y-48433326D01*
X136761000Y-48478661D01*
X136761000Y-49565339D01*
X136756535Y-49610674D01*
X136745101Y-49648367D01*
X136726534Y-49683103D01*
X136701548Y-49713548D01*
X136671103Y-49738534D01*
X136636367Y-49757101D01*
X136598674Y-49768535D01*
X136553339Y-49773000D01*
X135716661Y-49773000D01*
X135671326Y-49768535D01*
X135633633Y-49757101D01*
X135598897Y-49738534D01*
X135568452Y-49713548D01*
X135543466Y-49683103D01*
X135524899Y-49648367D01*
X135513465Y-49610674D01*
X135509000Y-49565339D01*
X135509000Y-48478661D01*
X135513465Y-48433326D01*
X135524899Y-48395633D01*
X135543466Y-48360897D01*
X135568452Y-48330452D01*
X135598897Y-48305466D01*
X135633633Y-48286899D01*
X135671326Y-48275465D01*
X135716661Y-48271000D01*
X136553339Y-48271000D01*
X136598674Y-48275465D01*
G37*
G36*
X127875512Y-47871927D02*
G01*
X128024812Y-47901624D01*
X128188784Y-47969544D01*
X128336354Y-48068147D01*
X128461853Y-48193646D01*
X128560456Y-48341216D01*
X128628376Y-48505188D01*
X128663000Y-48679259D01*
X128663000Y-48856741D01*
X128628376Y-49030812D01*
X128560456Y-49194784D01*
X128461853Y-49342354D01*
X128336354Y-49467853D01*
X128188784Y-49566456D01*
X128024812Y-49634376D01*
X127884777Y-49662230D01*
X127850742Y-49669000D01*
X127673258Y-49669000D01*
X127639223Y-49662230D01*
X127499188Y-49634376D01*
X127335216Y-49566456D01*
X127187646Y-49467853D01*
X127062147Y-49342354D01*
X126963544Y-49194784D01*
X126895624Y-49030812D01*
X126861000Y-48856741D01*
X126861000Y-48679259D01*
X126895624Y-48505188D01*
X126963544Y-48341216D01*
X127062147Y-48193646D01*
X127187646Y-48068147D01*
X127335216Y-47969544D01*
X127499188Y-47901624D01*
X127648488Y-47871927D01*
X127673258Y-47867000D01*
X127850742Y-47867000D01*
X127875512Y-47871927D01*
G37*
G36*
X134319674Y-47647465D02*
G01*
X134357367Y-47658899D01*
X134392103Y-47677466D01*
X134422548Y-47702452D01*
X134447534Y-47732897D01*
X134466101Y-47767633D01*
X134477535Y-47805326D01*
X134482000Y-47850661D01*
X134482000Y-48687339D01*
X134477535Y-48732674D01*
X134466101Y-48770367D01*
X134447534Y-48805103D01*
X134422548Y-48835548D01*
X134392103Y-48860534D01*
X134357367Y-48879101D01*
X134319674Y-48890535D01*
X134274339Y-48895000D01*
X133187661Y-48895000D01*
X133142326Y-48890535D01*
X133104633Y-48879101D01*
X133069897Y-48860534D01*
X133039452Y-48835548D01*
X133014466Y-48805103D01*
X132995899Y-48770367D01*
X132984465Y-48732674D01*
X132980000Y-48687339D01*
X132980000Y-47850661D01*
X132984465Y-47805326D01*
X132995899Y-47767633D01*
X133014466Y-47732897D01*
X133039452Y-47702452D01*
X133069897Y-47677466D01*
X133104633Y-47658899D01*
X133142326Y-47647465D01*
X133187661Y-47643000D01*
X134274339Y-47643000D01*
X134319674Y-47647465D01*
G37*
G36*
X131906674Y-47647465D02*
G01*
X131944367Y-47658899D01*
X131979103Y-47677466D01*
X132009548Y-47702452D01*
X132034534Y-47732897D01*
X132053101Y-47767633D01*
X132064535Y-47805326D01*
X132069000Y-47850661D01*
X132069000Y-48687339D01*
X132064535Y-48732674D01*
X132053101Y-48770367D01*
X132034534Y-48805103D01*
X132009548Y-48835548D01*
X131979103Y-48860534D01*
X131944367Y-48879101D01*
X131906674Y-48890535D01*
X131861339Y-48895000D01*
X130774661Y-48895000D01*
X130729326Y-48890535D01*
X130691633Y-48879101D01*
X130656897Y-48860534D01*
X130626452Y-48835548D01*
X130601466Y-48805103D01*
X130582899Y-48770367D01*
X130571465Y-48732674D01*
X130567000Y-48687339D01*
X130567000Y-47850661D01*
X130571465Y-47805326D01*
X130582899Y-47767633D01*
X130601466Y-47732897D01*
X130626452Y-47702452D01*
X130656897Y-47677466D01*
X130691633Y-47658899D01*
X130729326Y-47647465D01*
X130774661Y-47643000D01*
X131861339Y-47643000D01*
X131906674Y-47647465D01*
G37*
G36*
X112788674Y-47393465D02*
G01*
X112826367Y-47404899D01*
X112861103Y-47423466D01*
X112891548Y-47448452D01*
X112916534Y-47478897D01*
X112935101Y-47513633D01*
X112946535Y-47551326D01*
X112951000Y-47596661D01*
X112951000Y-48433339D01*
X112946535Y-48478674D01*
X112935101Y-48516367D01*
X112916534Y-48551103D01*
X112891548Y-48581548D01*
X112861103Y-48606534D01*
X112826367Y-48625101D01*
X112788674Y-48636535D01*
X112743339Y-48641000D01*
X111656661Y-48641000D01*
X111611326Y-48636535D01*
X111573633Y-48625101D01*
X111538897Y-48606534D01*
X111508452Y-48581548D01*
X111483466Y-48551103D01*
X111464899Y-48516367D01*
X111453465Y-48478674D01*
X111449000Y-48433339D01*
X111449000Y-47596661D01*
X111453465Y-47551326D01*
X111464899Y-47513633D01*
X111483466Y-47478897D01*
X111508452Y-47448452D01*
X111538897Y-47423466D01*
X111573633Y-47404899D01*
X111611326Y-47393465D01*
X111656661Y-47389000D01*
X112743339Y-47389000D01*
X112788674Y-47393465D01*
G37*
G36*
X141170674Y-46243465D02*
G01*
X141208367Y-46254899D01*
X141243103Y-46273466D01*
X141273548Y-46298452D01*
X141298534Y-46328897D01*
X141317101Y-46363633D01*
X141328535Y-46401326D01*
X141333000Y-46446661D01*
X141333000Y-47533339D01*
X141328535Y-47578674D01*
X141317101Y-47616367D01*
X141298534Y-47651103D01*
X141273548Y-47681548D01*
X141243103Y-47706534D01*
X141208367Y-47725101D01*
X141170674Y-47736535D01*
X141125339Y-47741000D01*
X140288661Y-47741000D01*
X140243326Y-47736535D01*
X140205633Y-47725101D01*
X140170897Y-47706534D01*
X140140452Y-47681548D01*
X140115466Y-47651103D01*
X140096899Y-47616367D01*
X140085465Y-47578674D01*
X140081000Y-47533339D01*
X140081000Y-46446661D01*
X140085465Y-46401326D01*
X140096899Y-46363633D01*
X140115466Y-46328897D01*
X140140452Y-46298452D01*
X140170897Y-46273466D01*
X140205633Y-46254899D01*
X140243326Y-46243465D01*
X140288661Y-46239000D01*
X141125339Y-46239000D01*
X141170674Y-46243465D01*
G37*
G36*
X136598674Y-46243465D02*
G01*
X136636367Y-46254899D01*
X136671103Y-46273466D01*
X136701548Y-46298452D01*
X136726534Y-46328897D01*
X136745101Y-46363633D01*
X136756535Y-46401326D01*
X136761000Y-46446661D01*
X136761000Y-47533339D01*
X136756535Y-47578674D01*
X136745101Y-47616367D01*
X136726534Y-47651103D01*
X136701548Y-47681548D01*
X136671103Y-47706534D01*
X136636367Y-47725101D01*
X136598674Y-47736535D01*
X136553339Y-47741000D01*
X135716661Y-47741000D01*
X135671326Y-47736535D01*
X135633633Y-47725101D01*
X135598897Y-47706534D01*
X135568452Y-47681548D01*
X135543466Y-47651103D01*
X135524899Y-47616367D01*
X135513465Y-47578674D01*
X135509000Y-47533339D01*
X135509000Y-46446661D01*
X135513465Y-46401326D01*
X135524899Y-46363633D01*
X135543466Y-46328897D01*
X135568452Y-46298452D01*
X135598897Y-46273466D01*
X135633633Y-46254899D01*
X135671326Y-46243465D01*
X135716661Y-46239000D01*
X136553339Y-46239000D01*
X136598674Y-46243465D01*
G37*
G36*
X138648674Y-46243465D02*
G01*
X138686367Y-46254899D01*
X138721103Y-46273466D01*
X138751548Y-46298452D01*
X138776534Y-46328897D01*
X138795101Y-46363633D01*
X138806535Y-46401326D01*
X138811000Y-46446661D01*
X138811000Y-47533339D01*
X138806535Y-47578674D01*
X138795101Y-47616367D01*
X138776534Y-47651103D01*
X138751548Y-47681548D01*
X138721103Y-47706534D01*
X138686367Y-47725101D01*
X138648674Y-47736535D01*
X138603339Y-47741000D01*
X137766661Y-47741000D01*
X137721326Y-47736535D01*
X137683633Y-47725101D01*
X137648897Y-47706534D01*
X137618452Y-47681548D01*
X137593466Y-47651103D01*
X137574899Y-47616367D01*
X137563465Y-47578674D01*
X137559000Y-47533339D01*
X137559000Y-46446661D01*
X137563465Y-46401326D01*
X137574899Y-46363633D01*
X137593466Y-46328897D01*
X137618452Y-46298452D01*
X137648897Y-46273466D01*
X137683633Y-46254899D01*
X137721326Y-46243465D01*
X137766661Y-46239000D01*
X138603339Y-46239000D01*
X138648674Y-46243465D01*
G37*
G36*
X143220674Y-46243465D02*
G01*
X143258367Y-46254899D01*
X143293103Y-46273466D01*
X143323548Y-46298452D01*
X143348534Y-46328897D01*
X143367101Y-46363633D01*
X143378535Y-46401326D01*
X143383000Y-46446661D01*
X143383000Y-47533339D01*
X143378535Y-47578674D01*
X143367101Y-47616367D01*
X143348534Y-47651103D01*
X143323548Y-47681548D01*
X143293103Y-47706534D01*
X143258367Y-47725101D01*
X143220674Y-47736535D01*
X143175339Y-47741000D01*
X142338661Y-47741000D01*
X142293326Y-47736535D01*
X142255633Y-47725101D01*
X142220897Y-47706534D01*
X142190452Y-47681548D01*
X142165466Y-47651103D01*
X142146899Y-47616367D01*
X142135465Y-47578674D01*
X142131000Y-47533339D01*
X142131000Y-46446661D01*
X142135465Y-46401326D01*
X142146899Y-46363633D01*
X142165466Y-46328897D01*
X142190452Y-46298452D01*
X142220897Y-46273466D01*
X142255633Y-46254899D01*
X142293326Y-46243465D01*
X142338661Y-46239000D01*
X143175339Y-46239000D01*
X143220674Y-46243465D01*
G37*
G36*
X128663000Y-47129000D02*
G01*
X126861000Y-47129000D01*
X126861000Y-45327000D01*
X128663000Y-45327000D01*
X128663000Y-47129000D01*
G37*
G36*
X131906674Y-45597465D02*
G01*
X131944367Y-45608899D01*
X131979103Y-45627466D01*
X132009548Y-45652452D01*
X132034534Y-45682897D01*
X132053101Y-45717633D01*
X132064535Y-45755326D01*
X132069000Y-45800661D01*
X132069000Y-46637339D01*
X132064535Y-46682674D01*
X132053101Y-46720367D01*
X132034534Y-46755103D01*
X132009548Y-46785548D01*
X131979103Y-46810534D01*
X131944367Y-46829101D01*
X131906674Y-46840535D01*
X131861339Y-46845000D01*
X130774661Y-46845000D01*
X130729326Y-46840535D01*
X130691633Y-46829101D01*
X130656897Y-46810534D01*
X130626452Y-46785548D01*
X130601466Y-46755103D01*
X130582899Y-46720367D01*
X130571465Y-46682674D01*
X130567000Y-46637339D01*
X130567000Y-45800661D01*
X130571465Y-45755326D01*
X130582899Y-45717633D01*
X130601466Y-45682897D01*
X130626452Y-45652452D01*
X130656897Y-45627466D01*
X130691633Y-45608899D01*
X130729326Y-45597465D01*
X130774661Y-45593000D01*
X131861339Y-45593000D01*
X131906674Y-45597465D01*
G37*
G36*
X134319674Y-45597465D02*
G01*
X134357367Y-45608899D01*
X134392103Y-45627466D01*
X134422548Y-45652452D01*
X134447534Y-45682897D01*
X134466101Y-45717633D01*
X134477535Y-45755326D01*
X134482000Y-45800661D01*
X134482000Y-46637339D01*
X134477535Y-46682674D01*
X134466101Y-46720367D01*
X134447534Y-46755103D01*
X134422548Y-46785548D01*
X134392103Y-46810534D01*
X134357367Y-46829101D01*
X134319674Y-46840535D01*
X134274339Y-46845000D01*
X133187661Y-46845000D01*
X133142326Y-46840535D01*
X133104633Y-46829101D01*
X133069897Y-46810534D01*
X133039452Y-46785548D01*
X133014466Y-46755103D01*
X132995899Y-46720367D01*
X132984465Y-46682674D01*
X132980000Y-46637339D01*
X132980000Y-45800661D01*
X132984465Y-45755326D01*
X132995899Y-45717633D01*
X133014466Y-45682897D01*
X133039452Y-45652452D01*
X133069897Y-45627466D01*
X133104633Y-45608899D01*
X133142326Y-45597465D01*
X133187661Y-45593000D01*
X134274339Y-45593000D01*
X134319674Y-45597465D01*
G37*
G36*
X112788674Y-45343465D02*
G01*
X112826367Y-45354899D01*
X112861103Y-45373466D01*
X112891548Y-45398452D01*
X112916534Y-45428897D01*
X112935101Y-45463633D01*
X112946535Y-45501326D01*
X112951000Y-45546661D01*
X112951000Y-46383339D01*
X112946535Y-46428674D01*
X112935101Y-46466367D01*
X112916534Y-46501103D01*
X112891548Y-46531548D01*
X112861103Y-46556534D01*
X112826367Y-46575101D01*
X112788674Y-46586535D01*
X112743339Y-46591000D01*
X111656661Y-46591000D01*
X111611326Y-46586535D01*
X111573633Y-46575101D01*
X111538897Y-46556534D01*
X111508452Y-46531548D01*
X111483466Y-46501103D01*
X111464899Y-46466367D01*
X111453465Y-46428674D01*
X111449000Y-46383339D01*
X111449000Y-45546661D01*
X111453465Y-45501326D01*
X111464899Y-45463633D01*
X111483466Y-45428897D01*
X111508452Y-45398452D01*
X111538897Y-45373466D01*
X111573633Y-45354899D01*
X111611326Y-45343465D01*
X111656661Y-45339000D01*
X112743339Y-45339000D01*
X112788674Y-45343465D01*
G37*
G36*
X124286674Y-45107465D02*
G01*
X124324367Y-45118899D01*
X124359103Y-45137466D01*
X124389548Y-45162452D01*
X124414534Y-45192897D01*
X124433101Y-45227633D01*
X124444535Y-45265326D01*
X124449000Y-45310661D01*
X124449000Y-46147339D01*
X124444535Y-46192674D01*
X124433101Y-46230367D01*
X124414534Y-46265103D01*
X124389548Y-46295548D01*
X124359103Y-46320534D01*
X124324367Y-46339101D01*
X124286674Y-46350535D01*
X124241339Y-46355000D01*
X123154661Y-46355000D01*
X123109326Y-46350535D01*
X123071633Y-46339101D01*
X123036897Y-46320534D01*
X123006452Y-46295548D01*
X122981466Y-46265103D01*
X122962899Y-46230367D01*
X122951465Y-46192674D01*
X122947000Y-46147339D01*
X122947000Y-45310661D01*
X122951465Y-45265326D01*
X122962899Y-45227633D01*
X122981466Y-45192897D01*
X123006452Y-45162452D01*
X123036897Y-45137466D01*
X123071633Y-45118899D01*
X123109326Y-45107465D01*
X123154661Y-45103000D01*
X124241339Y-45103000D01*
X124286674Y-45107465D01*
G37*
G36*
X104317021Y-40806640D02*
G01*
X104826769Y-41017785D01*
X104826771Y-41017786D01*
X105285534Y-41324321D01*
X105675679Y-41714466D01*
X105982214Y-42173229D01*
X105982215Y-42173231D01*
X106193360Y-42682979D01*
X106301000Y-43224124D01*
X106301000Y-43775876D01*
X106193360Y-44317021D01*
X105982215Y-44826769D01*
X105982214Y-44826771D01*
X105675679Y-45285534D01*
X105285534Y-45675679D01*
X104826771Y-45982214D01*
X104826770Y-45982215D01*
X104826769Y-45982215D01*
X104317021Y-46193360D01*
X103775876Y-46301000D01*
X103224124Y-46301000D01*
X102682979Y-46193360D01*
X102173231Y-45982215D01*
X102173230Y-45982215D01*
X102173229Y-45982214D01*
X101714466Y-45675679D01*
X101324321Y-45285534D01*
X101017786Y-44826771D01*
X101017785Y-44826769D01*
X100806640Y-44317021D01*
X100699000Y-43775876D01*
X100699000Y-43224124D01*
X100806640Y-42682979D01*
X101017785Y-42173231D01*
X101017786Y-42173229D01*
X101324321Y-41714466D01*
X101714466Y-41324321D01*
X102173229Y-41017786D01*
X102173231Y-41017785D01*
X102682979Y-40806640D01*
X103224124Y-40699000D01*
X103775876Y-40699000D01*
X104317021Y-40806640D01*
G37*
G36*
X147317021Y-40806640D02*
G01*
X147826769Y-41017785D01*
X147826771Y-41017786D01*
X148285534Y-41324321D01*
X148675679Y-41714466D01*
X148982214Y-42173229D01*
X148982215Y-42173231D01*
X149193360Y-42682979D01*
X149301000Y-43224124D01*
X149301000Y-43775876D01*
X149193360Y-44317021D01*
X148982215Y-44826769D01*
X148982214Y-44826771D01*
X148675679Y-45285534D01*
X148285534Y-45675679D01*
X147826771Y-45982214D01*
X147826770Y-45982215D01*
X147826769Y-45982215D01*
X147317021Y-46193360D01*
X146775876Y-46301000D01*
X146224124Y-46301000D01*
X145682979Y-46193360D01*
X145173231Y-45982215D01*
X145173230Y-45982215D01*
X145173229Y-45982214D01*
X144714466Y-45675679D01*
X144324321Y-45285534D01*
X144017786Y-44826771D01*
X144017785Y-44826769D01*
X143806640Y-44317021D01*
X143699000Y-43775876D01*
X143699000Y-43224124D01*
X143806640Y-42682979D01*
X144017785Y-42173231D01*
X144017786Y-42173229D01*
X144324321Y-41714466D01*
X144714466Y-41324321D01*
X145173229Y-41017786D01*
X145173231Y-41017785D01*
X145682979Y-40806640D01*
X146224124Y-40699000D01*
X146775876Y-40699000D01*
X147317021Y-40806640D01*
G37*
G36*
X124286674Y-43057465D02*
G01*
X124324367Y-43068899D01*
X124359103Y-43087466D01*
X124389548Y-43112452D01*
X124414534Y-43142897D01*
X124433101Y-43177633D01*
X124444535Y-43215326D01*
X124449000Y-43260661D01*
X124449000Y-44097339D01*
X124444535Y-44142674D01*
X124433101Y-44180367D01*
X124414534Y-44215103D01*
X124389548Y-44245548D01*
X124359103Y-44270534D01*
X124324367Y-44289101D01*
X124286674Y-44300535D01*
X124241339Y-44305000D01*
X123154661Y-44305000D01*
X123109326Y-44300535D01*
X123071633Y-44289101D01*
X123036897Y-44270534D01*
X123006452Y-44245548D01*
X122981466Y-44215103D01*
X122962899Y-44180367D01*
X122951465Y-44142674D01*
X122947000Y-44097339D01*
X122947000Y-43260661D01*
X122951465Y-43215326D01*
X122962899Y-43177633D01*
X122981466Y-43142897D01*
X123006452Y-43112452D01*
X123036897Y-43087466D01*
X123071633Y-43068899D01*
X123109326Y-43057465D01*
X123154661Y-43053000D01*
X124241339Y-43053000D01*
X124286674Y-43057465D01*
G37*
G36*
X140813512Y-41103927D02*
G01*
X140962812Y-41133624D01*
X141126784Y-41201544D01*
X141274354Y-41300147D01*
X141399853Y-41425646D01*
X141498456Y-41573216D01*
X141566376Y-41737188D01*
X141601000Y-41911259D01*
X141601000Y-42088741D01*
X141566376Y-42262812D01*
X141498456Y-42426784D01*
X141399853Y-42574354D01*
X141274354Y-42699853D01*
X141126784Y-42798456D01*
X140962812Y-42866376D01*
X140813512Y-42896073D01*
X140788742Y-42901000D01*
X140611258Y-42901000D01*
X140586488Y-42896073D01*
X140437188Y-42866376D01*
X140273216Y-42798456D01*
X140125646Y-42699853D01*
X140000147Y-42574354D01*
X139901544Y-42426784D01*
X139833624Y-42262812D01*
X139799000Y-42088741D01*
X139799000Y-41911259D01*
X139833624Y-41737188D01*
X139901544Y-41573216D01*
X140000147Y-41425646D01*
X140125646Y-41300147D01*
X140273216Y-41201544D01*
X140437188Y-41133624D01*
X140586488Y-41103927D01*
X140611258Y-41099000D01*
X140788742Y-41099000D01*
X140813512Y-41103927D01*
G37*
G36*
X109573512Y-41103927D02*
G01*
X109722812Y-41133624D01*
X109886784Y-41201544D01*
X110034354Y-41300147D01*
X110159853Y-41425646D01*
X110258456Y-41573216D01*
X110326376Y-41737188D01*
X110361000Y-41911259D01*
X110361000Y-42088741D01*
X110326376Y-42262812D01*
X110258456Y-42426784D01*
X110159853Y-42574354D01*
X110034354Y-42699853D01*
X109886784Y-42798456D01*
X109722812Y-42866376D01*
X109573512Y-42896073D01*
X109548742Y-42901000D01*
X109371258Y-42901000D01*
X109346488Y-42896073D01*
X109197188Y-42866376D01*
X109033216Y-42798456D01*
X108885646Y-42699853D01*
X108760147Y-42574354D01*
X108661544Y-42426784D01*
X108593624Y-42262812D01*
X108559000Y-42088741D01*
X108559000Y-41911259D01*
X108593624Y-41737188D01*
X108661544Y-41573216D01*
X108760147Y-41425646D01*
X108885646Y-41300147D01*
X109033216Y-41201544D01*
X109197188Y-41133624D01*
X109346488Y-41103927D01*
X109371258Y-41099000D01*
X109548742Y-41099000D01*
X109573512Y-41103927D01*
G37*
G36*
X112901000Y-42901000D02*
G01*
X111099000Y-42901000D01*
X111099000Y-41099000D01*
X112901000Y-41099000D01*
X112901000Y-42901000D01*
G37*
G36*
X116901000Y-42901000D02*
G01*
X115099000Y-42901000D01*
X115099000Y-41099000D01*
X116901000Y-41099000D01*
X116901000Y-42901000D01*
G37*
G36*
X118653512Y-41103927D02*
G01*
X118802812Y-41133624D01*
X118966784Y-41201544D01*
X119114354Y-41300147D01*
X119239853Y-41425646D01*
X119338456Y-41573216D01*
X119406376Y-41737188D01*
X119441000Y-41911259D01*
X119441000Y-42088741D01*
X119406376Y-42262812D01*
X119338456Y-42426784D01*
X119239853Y-42574354D01*
X119114354Y-42699853D01*
X118966784Y-42798456D01*
X118802812Y-42866376D01*
X118653512Y-42896073D01*
X118628742Y-42901000D01*
X118451258Y-42901000D01*
X118426488Y-42896073D01*
X118277188Y-42866376D01*
X118113216Y-42798456D01*
X117965646Y-42699853D01*
X117840147Y-42574354D01*
X117741544Y-42426784D01*
X117673624Y-42262812D01*
X117639000Y-42088741D01*
X117639000Y-41911259D01*
X117673624Y-41737188D01*
X117741544Y-41573216D01*
X117840147Y-41425646D01*
X117965646Y-41300147D01*
X118113216Y-41201544D01*
X118277188Y-41133624D01*
X118426488Y-41103927D01*
X118451258Y-41099000D01*
X118628742Y-41099000D01*
X118653512Y-41103927D01*
G37*
G36*
X121193512Y-41103927D02*
G01*
X121342812Y-41133624D01*
X121506784Y-41201544D01*
X121654354Y-41300147D01*
X121779853Y-41425646D01*
X121878456Y-41573216D01*
X121946376Y-41737188D01*
X121981000Y-41911259D01*
X121981000Y-42088741D01*
X121946376Y-42262812D01*
X121878456Y-42426784D01*
X121779853Y-42574354D01*
X121654354Y-42699853D01*
X121506784Y-42798456D01*
X121342812Y-42866376D01*
X121193512Y-42896073D01*
X121168742Y-42901000D01*
X120991258Y-42901000D01*
X120966488Y-42896073D01*
X120817188Y-42866376D01*
X120653216Y-42798456D01*
X120505646Y-42699853D01*
X120380147Y-42574354D01*
X120281544Y-42426784D01*
X120213624Y-42262812D01*
X120179000Y-42088741D01*
X120179000Y-41911259D01*
X120213624Y-41737188D01*
X120281544Y-41573216D01*
X120380147Y-41425646D01*
X120505646Y-41300147D01*
X120653216Y-41201544D01*
X120817188Y-41133624D01*
X120966488Y-41103927D01*
X120991258Y-41099000D01*
X121168742Y-41099000D01*
X121193512Y-41103927D01*
G37*
G36*
X128901000Y-42901000D02*
G01*
X127099000Y-42901000D01*
X127099000Y-41099000D01*
X128901000Y-41099000D01*
X128901000Y-42901000D01*
G37*
G36*
X130653512Y-41103927D02*
G01*
X130802812Y-41133624D01*
X130966784Y-41201544D01*
X131114354Y-41300147D01*
X131239853Y-41425646D01*
X131338456Y-41573216D01*
X131406376Y-41737188D01*
X131441000Y-41911259D01*
X131441000Y-42088741D01*
X131406376Y-42262812D01*
X131338456Y-42426784D01*
X131239853Y-42574354D01*
X131114354Y-42699853D01*
X130966784Y-42798456D01*
X130802812Y-42866376D01*
X130653512Y-42896073D01*
X130628742Y-42901000D01*
X130451258Y-42901000D01*
X130426488Y-42896073D01*
X130277188Y-42866376D01*
X130113216Y-42798456D01*
X129965646Y-42699853D01*
X129840147Y-42574354D01*
X129741544Y-42426784D01*
X129673624Y-42262812D01*
X129639000Y-42088741D01*
X129639000Y-41911259D01*
X129673624Y-41737188D01*
X129741544Y-41573216D01*
X129840147Y-41425646D01*
X129965646Y-41300147D01*
X130113216Y-41201544D01*
X130277188Y-41133624D01*
X130426488Y-41103927D01*
X130451258Y-41099000D01*
X130628742Y-41099000D01*
X130653512Y-41103927D01*
G37*
G36*
X133193512Y-41103927D02*
G01*
X133342812Y-41133624D01*
X133506784Y-41201544D01*
X133654354Y-41300147D01*
X133779853Y-41425646D01*
X133878456Y-41573216D01*
X133946376Y-41737188D01*
X133981000Y-41911259D01*
X133981000Y-42088741D01*
X133946376Y-42262812D01*
X133878456Y-42426784D01*
X133779853Y-42574354D01*
X133654354Y-42699853D01*
X133506784Y-42798456D01*
X133342812Y-42866376D01*
X133193512Y-42896073D01*
X133168742Y-42901000D01*
X132991258Y-42901000D01*
X132966488Y-42896073D01*
X132817188Y-42866376D01*
X132653216Y-42798456D01*
X132505646Y-42699853D01*
X132380147Y-42574354D01*
X132281544Y-42426784D01*
X132213624Y-42262812D01*
X132179000Y-42088741D01*
X132179000Y-41911259D01*
X132213624Y-41737188D01*
X132281544Y-41573216D01*
X132380147Y-41425646D01*
X132505646Y-41300147D01*
X132653216Y-41201544D01*
X132817188Y-41133624D01*
X132966488Y-41103927D01*
X132991258Y-41099000D01*
X133168742Y-41099000D01*
X133193512Y-41103927D01*
G37*
G36*
X135733512Y-41103927D02*
G01*
X135882812Y-41133624D01*
X136046784Y-41201544D01*
X136194354Y-41300147D01*
X136319853Y-41425646D01*
X136418456Y-41573216D01*
X136486376Y-41737188D01*
X136521000Y-41911259D01*
X136521000Y-42088741D01*
X136486376Y-42262812D01*
X136418456Y-42426784D01*
X136319853Y-42574354D01*
X136194354Y-42699853D01*
X136046784Y-42798456D01*
X135882812Y-42866376D01*
X135733512Y-42896073D01*
X135708742Y-42901000D01*
X135531258Y-42901000D01*
X135506488Y-42896073D01*
X135357188Y-42866376D01*
X135193216Y-42798456D01*
X135045646Y-42699853D01*
X134920147Y-42574354D01*
X134821544Y-42426784D01*
X134753624Y-42262812D01*
X134719000Y-42088741D01*
X134719000Y-41911259D01*
X134753624Y-41737188D01*
X134821544Y-41573216D01*
X134920147Y-41425646D01*
X135045646Y-41300147D01*
X135193216Y-41201544D01*
X135357188Y-41133624D01*
X135506488Y-41103927D01*
X135531258Y-41099000D01*
X135708742Y-41099000D01*
X135733512Y-41103927D01*
G37*
G36*
X138273512Y-41103927D02*
G01*
X138422812Y-41133624D01*
X138586784Y-41201544D01*
X138734354Y-41300147D01*
X138859853Y-41425646D01*
X138958456Y-41573216D01*
X139026376Y-41737188D01*
X139061000Y-41911259D01*
X139061000Y-42088741D01*
X139026376Y-42262812D01*
X138958456Y-42426784D01*
X138859853Y-42574354D01*
X138734354Y-42699853D01*
X138586784Y-42798456D01*
X138422812Y-42866376D01*
X138273512Y-42896073D01*
X138248742Y-42901000D01*
X138071258Y-42901000D01*
X138046488Y-42896073D01*
X137897188Y-42866376D01*
X137733216Y-42798456D01*
X137585646Y-42699853D01*
X137460147Y-42574354D01*
X137361544Y-42426784D01*
X137293624Y-42262812D01*
X137259000Y-42088741D01*
X137259000Y-41911259D01*
X137293624Y-41737188D01*
X137361544Y-41573216D01*
X137460147Y-41425646D01*
X137585646Y-41300147D01*
X137733216Y-41201544D01*
X137897188Y-41133624D01*
X138046488Y-41103927D01*
X138071258Y-41099000D01*
X138248742Y-41099000D01*
X138273512Y-41103927D01*
G37*
M02*
